<svg xmlns="http://www.w3.org/2000/svg" viewBox="0 0 154 24">
  <rect width="154" height="24"/>
  <path d="M17.72,16.62H15.09l-.18-4.25-.08-1.7c0,.33-.06.64-.1.93s-.08.59-.13.87l-.79,4.15H11.76l-.68-4.16c0-.24-.09-.66-.16-1.25l-.06-.54-.06,1.72-.22,4.23H7.9L9,7.29h3.13l.52,3.15a8.47,8.47,0,0,1,.12.84c0,.3.07.63.09,1,.06-.59.13-1.12.22-1.59l.64-3.38h3.11Z"/>
  <polygon points="18.84 16.62 21.36 16.62 21.36 7.29 18.84 7.29 18.84 16.62"/>
  <path d="M22.66,16.62V7.29h2.4l1.26,3.28.24.66c.08.25.18.54.28.87l.26.82c-.09-.81-.16-1.5-.21-2.08s-.07-1.06-.07-1.45V7.29h2.4v9.33h-2.4l-1.27-3.43-.36-1c-.1-.32-.2-.63-.28-.92C25,11.9,25,12.47,25,13s0,.91,0,1.28v2.38Z"/>
  <polygon points="30.52 16.62 30.52 7.29 35.2 7.29 35.2 9.49 33.04 9.49 33.04 10.85 34.98 10.85 34.98 12.96 33.04 12.96 33.04 14.38 35.2 14.38 35.2 16.62 30.52 16.62"/>
  <path d="M38.79,11.61H39a1,1,0,0,0,.73-.33,1.24,1.24,0,0,0,.28-.84c0-.7-.36-1-1.09-1h-.09Zm4.11,5H40.18L38.94,13.3l-.07-.22c0-.1-.06-.21-.11-.34l0,.62v3.26h-2.5V7.29h2.57A4.09,4.09,0,0,1,41.4,8a3,3,0,0,1,1.07,2.45A2.34,2.34,0,0,1,41,12.74Z"/>
  <path d="M43.54,16.39V13.46a2,2,0,0,0,1.6,1,.77.77,0,0,0,.53-.18.52.52,0,0,0,.21-.43,1,1,0,0,0-.45-.73L45,12.82a5.46,5.46,0,0,1-.7-.61,3,3,0,0,1-.47-.63,2.94,2.94,0,0,1-.27-.67,3.38,3.38,0,0,1-.08-.72,3.54,3.54,0,0,1,.3-1.37,3.5,3.5,0,0,1,.35-.6,2.39,2.39,0,0,1,.46-.49,2.58,2.58,0,0,1,1.72-.6,3.85,3.85,0,0,1,1.81.47v2.85a2.82,2.82,0,0,0-.7-.75,1.36,1.36,0,0,0-.77-.27.66.66,0,0,0-.48.17A.48.48,0,0,0,46,10a1,1,0,0,0,.51.74l.4.3a3.81,3.81,0,0,1,1.14,1.18,2.78,2.78,0,0,1,.35,1.41,3.19,3.19,0,0,1-.84,2.27,2.77,2.77,0,0,1-2.12.89,5.29,5.29,0,0,1-1.9-.39"/>
  <polygon points="52.81 7.29 51.18 11.78 49.2 11.78 50.34 7.29 52.81 7.29"/>
  <polygon points="63.88 16.62 61.36 16.62 61.36 12.87 60.16 12.87 60.16 16.62 57.65 16.62 57.65 7.29 60.16 7.29 60.16 10.59 61.36 10.59 61.36 7.29 63.88 7.29 63.88 16.62"/>
  <polygon points="65.18 16.62 65.18 7.29 69.86 7.29 69.86 9.49 67.7 9.49 67.7 10.85 69.64 10.85 69.64 12.96 67.7 12.96 67.7 14.38 69.86 14.38 69.86 16.62 65.18 16.62"/>
  <path d="M74.56,13.44l-.16-1.09s0-.06,0-.16l-.12-1c0-.07,0-.17,0-.28s0-.27,0-.45l-.08-.89c0,.09,0,.18,0,.29s0,.22,0,.34-.05.42-.06.52,0,.16,0,.18L73.75,12l-.25,1.46Zm3.08,3.18H75l-.18-1.18h-1.7L73,16.62h-2.6l2.24-9.33h3.08Z"/>
  <polygon points="82.78 16.62 78.37 16.62 78.37 7.29 80.89 7.29 80.89 14.38 82.78 14.38 82.78 16.62"/>
  <polygon points="86.52 16.62 84 16.62 84 9.53 82.62 9.53 82.62 7.29 87.96 7.29 87.96 9.53 86.52 9.53 86.52 16.62"/>
  <polygon points="94.85 16.62 92.33 16.62 92.33 12.87 91.13 12.87 91.13 16.62 88.61 16.62 88.61 7.29 91.13 7.29 91.13 10.59 92.33 10.59 92.33 7.29 94.85 7.29 94.85 16.62"/>
  <path d="M109.46,16.62h-2.63l-.19-4.25-.08-1.7q0,.49-.09.93c0,.3-.08.59-.14.87l-.79,4.15h-2.05l-.68-4.16c0-.24-.09-.66-.16-1.25,0-.08,0-.27-.05-.54l-.06,1.72-.23,4.23H99.63l1.09-9.33h3.13l.53,3.15q.06.38.12.84c0,.3.06.63.09,1a13,13,0,0,1,.22-1.59l.64-3.38h3.1Z"/>
  <path d="M114.2,13.44,114,12.35l0-.16c0-.09-.05-.44-.12-1,0-.07,0-.17,0-.28s0-.27,0-.45l-.08-.89c0,.09,0,.18,0,.29s0,.22,0,.34-.05.42-.06.52,0,.16,0,.18L113.39,12l-.25,1.46Zm3.09,3.18h-2.61l-.18-1.18h-1.7l-.2,1.18H110l2.23-9.33h3.08Z"/>
  <polygon points="121.27 16.62 118.75 16.62 118.75 9.53 117.36 9.53 117.36 7.29 122.71 7.29 122.71 9.53 121.27 9.53 121.27 16.62"/>
  <polygon points="126.86 16.62 124.35 16.62 124.35 9.53 122.96 9.53 122.96 7.29 128.31 7.29 128.31 9.53 126.86 9.53 126.86 16.62"/>
  <polygon points="128.96 16.62 128.96 7.29 133.63 7.29 133.63 9.49 131.47 9.49 131.47 10.85 133.41 10.85 133.41 12.96 131.47 12.96 131.47 14.38 133.63 14.38 133.63 16.62 128.96 16.62"/>
  <path d="M137.22,11.61h.17a1,1,0,0,0,.73-.33,1.24,1.24,0,0,0,.29-.84c0-.7-.37-1-1.1-1h-.09Zm4.11,5h-2.72l-1.24-3.32a1.5,1.5,0,0,0-.06-.22c0-.1-.07-.21-.12-.34l0,.62v3.26h-2.5V7.29h2.57a4.09,4.09,0,0,1,2.55.67,3,3,0,0,1,1.08,2.45,2.35,2.35,0,0,1-1.45,2.33Z"/>
  <path d="M142,16.39V13.46a2,2,0,0,0,1.6,1,.76.76,0,0,0,.53-.18.52.52,0,0,0,.21-.43,1,1,0,0,0-.45-.73l-.41-.32a6.25,6.25,0,0,1-.7-.61,3,3,0,0,1-.47-.63,2.51,2.51,0,0,1-.26-.67,2.84,2.84,0,0,1-.09-.72,3.54,3.54,0,0,1,.3-1.37,3.5,3.5,0,0,1,.35-.6,2.69,2.69,0,0,1,.46-.49,2.59,2.59,0,0,1,1.72-.6,3.85,3.85,0,0,1,1.81.47v2.85a2.67,2.67,0,0,0-.7-.75,1.36,1.36,0,0,0-.77-.27.67.67,0,0,0-.48.17.48.48,0,0,0-.19.39,1,1,0,0,0,.51.74l.4.3a3.81,3.81,0,0,1,1.14,1.18,2.68,2.68,0,0,1,.35,1.41,3.19,3.19,0,0,1-.84,2.27,2.76,2.76,0,0,1-2.12.89,5.29,5.29,0,0,1-1.9-.39"/>
</svg>